<svg xmlns="http://www.w3.org/2000/svg" width="36" height="16" viewBox="0 0 36 16">
  <path fill="#000000" fill-rule="evenodd" d="M7.47175644,0.269789227 L0.389789227,7.35175644 C0.0300702576,7.71147541 0.0300702576,8.28852459 0.389789227,8.64824356 L7.47175644,15.7302108 C7.65161593,15.9100703 7.88393443,16 8.12374707,16 C8.36355972,16 8.59587822,15.9100703 8.7757377,15.7302108 C9.13545667,15.3704918 9.13545667,14.7934426 8.7757377,14.4337237 L3.26004684,8.91803279 L34.6455269,8.91803279 C35.1551288,8.91803279 35.5673068,8.5058548 35.5673068,7.99625293 C35.5673068,7.48665105 35.1551288,7.07447307 34.6455269,7.07447307 L3.25255269,7.07447307 L8.76824356,1.56627635 C9.12796253,1.20655738 9.12796253,0.629508197 8.76824356,0.269789227 C8.40852459,-0.0899297424 7.82398126,-0.0899297424 7.47175644,0.269789227 Z"/>
</svg>
