<svg xmlns="http://www.w3.org/2000/svg" width="47" height="59" viewBox="0 0 47 59">
  <g fill="none" fill-rule="evenodd">
    <path fill="#FCA74B" d="M0,23.7088295 C0,25.6295058 0.255171435,27.5939702 0.759512887,29.5528777 C0.771515725,29.6840199 0.801078269,29.8158288 0.846644597,29.9445259 C0.994457319,30.3559565 2.3161031,34.0083755 3.2305415,35.556297 C7.90542445,44.4443982 14.3173847,52.0526413 22.286602,58.1729771 C22.4255238,58.3316812 22.5968976,58.4677134 22.7922771,58.5681816 C22.9847671,58.6666493 23.1928163,58.7226626 23.4053109,58.7353322 C23.4531,58.7404445 23.5008891,58.742445 23.5484559,58.742445 C23.8067392,58.742445 24.0670229,58.6802081 24.3081911,58.5619579 C24.4855663,58.4737148 24.6427146,58.3512414 24.7734122,58.2040955 C42.6007378,44.5499787 46.0780043,30.2385954 46.2064791,29.6789075 C46.7334926,27.6731 47,25.6648475 47,23.7077181 C47.0004445,10.7504327 36.4586191,0.208607236 23.5008891,0.208607236 C10.5433814,0.208607236 0,10.7515441 0,23.7088295 Z"/>
    <g fill="#F8F8F8" transform="translate(9 8)">
      <path d="M13.9727096,6.28782846 C12.0468226,6.28782846 10.4795322,7.85462768 10.4795322,9.78100585 C10.4795322,11.7068928 12.0468226,13.2741832 13.9727096,13.2741832 C15.8990877,13.2741832 17.4658869,11.7068928 17.4658869,9.78100585 C17.4658869,7.85462768 15.8990877,6.28782846 13.9727096,6.28782846 Z M13.9727096,11.8769123 C12.8153216,11.8769123 11.8768031,10.9383938 11.8768031,9.78100585 C11.8768031,8.62361793 12.8153216,7.68509942 13.9727096,7.68509942 C15.1300975,7.68509942 16.068616,8.62361793 16.068616,9.78100585 C16.068616,10.9383938 15.1300975,11.8769123 13.9727096,11.8769123 Z"/>
      <path d="M27.2467836,26.5482573 L25.1508772,26.5482573 L25.1508772,15.3700897 L26.5481481,15.3700897 C27.113115,15.3700897 27.6226277,15.029614 27.8392047,14.5074932 C28.0552904,13.9853723 27.9360858,13.3845458 27.5364444,12.9844678 L14.9610058,0.40902924 C14.6881014,0.136561404 14.3304327,0.000109161793 13.9727096,0.000109161793 C13.6149864,0.000109161793 13.2573177,0.136561404 12.9848499,0.409520468 L9.08226121,4.31161793 L9.08226121,2.79465107 C9.08226121,2.02287719 8.45676413,1.39738012 7.68499025,1.39738012 L6.2877193,1.39738012 C5.51594542,1.39738012 4.89044834,2.02287719 4.89044834,2.79465107 L4.89044834,8.5034308 L0.409411306,12.9844678 C0.00976998051,13.3841092 -0.109925926,13.9849357 0.106651072,14.5074932 C0.322736842,15.029614 0.832304094,15.3700897 1.39727096,15.3700897 L2.79454191,15.3700897 L2.79454191,26.5482573 L0.698635478,26.5482573 C0.312530214,26.5482573 0,26.8607875 0,27.2468928 C0,27.6329981 0.312530214,27.9455283 0.698635478,27.9455283 L27.2467836,27.9455283 C27.6328889,27.9455283 27.9454191,27.6329981 27.9454191,27.2468928 C27.9454191,26.8607875 27.6328889,26.5482573 27.2467836,26.5482573 Z M6.2877193,2.79465107 L7.68499025,2.79465107 L7.68499025,5.70888889 L6.2877193,7.10615984 L6.2877193,2.79465107 L6.2877193,2.79465107 Z M16.068616,26.5482573 L11.8768031,26.5482573 L11.8768031,16.7673606 L16.068616,16.7673606 L16.068616,26.5482573 Z M23.7536062,26.5482573 L17.4658869,26.5482573 L17.4658869,16.7673606 C17.4658869,15.9955867 16.8403899,15.3700897 16.068616,15.3700897 L11.8768031,15.3700897 C11.1050292,15.3700897 10.4795322,15.9955867 10.4795322,16.7673606 L10.4795322,26.5482573 L4.19181287,26.5482573 L4.19181287,13.9728187 L1.39727096,13.9728187 L13.9727096,1.39738012 L26.5481481,13.9728187 L23.7536062,13.9728187 L23.7536062,26.5482573 Z"/>
    </g>
  </g>
</svg>
